<?xml version="1.0" standalone="no"?>
<!DOCTYPE svg PUBLIC "-//W3C//DTD SVG 20010904//EN"
 "http://www.w3.org/TR/2001/REC-SVG-20010904/DTD/svg10.dtd">
<svg version="1.0" xmlns="http://www.w3.org/2000/svg"
 width="591.000000pt" height="591.000000pt" viewBox="0 0 591.000000 591.000000"
 preserveAspectRatio="xMidYMid meet">
<metadata>
Created by potrace 1.14, written by Peter Selinger 2001-2017
</metadata>
<g transform="translate(0.000000,591.000000) scale(0.100000,-0.100000)"
fill="#000000" stroke="none">
<path d="M3375 3858 c-182 -18 -221 -26 -365 -75 -81 -27 -250 -111 -250 -125
0 -4 -5 -8 -11 -8 -24 0 -54 -46 -67 -107 -8 -33 -5 -48 12 -84 19 -39 25 -44
59 -47 25 -2 48 3 65 15 97 65 316 157 402 168 14 1 25 4 25 4 0 6 103 12 195
13 112 1 165 -6 218 -27 17 -8 32 -12 32 -9 0 16 122 -65 165 -110 44 -45 92
-122 99 -159 2 -7 6 -19 9 -27 26 -64 27 -317 2 -427 -3 -13 -7 -33 -10 -45
-9 -41 -38 -123 -46 -133 -5 -5 -9 -15 -9 -21 0 -27 -77 -139 -135 -198 -49
-49 -167 -128 -190 -127 -3 1 -22 -6 -42 -14 -21 -8 -49 -17 -63 -19 -14 -3
-36 -8 -50 -11 -14 -4 -81 -8 -150 -9 -115 -3 -167 4 -156 22 2 4 7 32 10 62
9 84 27 222 32 250 3 14 9 50 14 80 6 30 12 66 15 80 3 14 7 39 10 55 12 79
48 236 80 350 35 126 36 127 37 158 2 46 -30 69 -103 74 -34 3 -82 -1 -106 -8
-66 -18 -88 -59 -129 -241 -2 -10 -6 -27 -9 -38 -3 -11 -7 -29 -10 -40 -17
-69 -37 -169 -38 -187 0 -7 -3 -13 -6 -13 -3 0 -7 -10 -8 -22 -5 -52 -11 -93
-13 -93 -3 0 -6 -21 -25 -140 -10 -60 -19 -119 -21 -130 -2 -11 -7 -47 -10
-80 -3 -33 -9 -78 -13 -100 -12 -71 -6 -168 13 -197 23 -35 77 -54 178 -61 24
-2 49 -6 54 -9 13 -7 310 -2 369 6 60 9 196 43 240 61 78 31 139 63 199 103
76 51 206 171 206 190 0 6 6 15 13 19 7 4 24 26 37 48 13 22 28 43 33 46 5 3
8 9 7 13 -2 4 5 22 13 39 9 18 23 49 32 70 21 48 66 228 59 238 -2 4 0 10 4
13 5 3 9 81 10 173 0 180 -16 274 -66 387 -56 124 -191 264 -302 312 -8 4 -33
15 -55 24 -128 56 -331 84 -490 68z"/>
<path d="M1887 3833 c-2 -2 -28 -5 -58 -8 -77 -6 -153 -16 -160 -21 -3 -2 -19
-6 -36 -8 -101 -18 -250 -86 -319 -146 -44 -37 -90 -109 -112 -174 -15 -44
-19 -79 -17 -149 2 -51 5 -102 8 -115 10 -41 60 -121 85 -138 27 -18 83 -21
122 -6 28 11 79 59 81 76 3 27 -4 54 -23 95 -41 86 -34 175 17 234 28 31 113
77 143 77 12 0 23 4 27 9 3 6 13 10 23 9 9 0 40 3 67 6 100 13 162 17 240 17
108 0 232 -8 245 -16 5 -3 8 -20 6 -38 -14 -112 -18 -147 -21 -182 -2 -22 -4
-40 -5 -40 -1 0 -3 -13 -4 -30 -4 -42 -27 -216 -33 -240 -3 -11 -5 -27 -5 -35
0 -10 -22 -24 -61 -39 -97 -37 -275 -127 -352 -179 -120 -79 -239 -185 -285
-252 -8 -12 -22 -32 -31 -44 -17 -23 -52 -97 -63 -133 -18 -56 -20 -75 -20
-178 -1 -101 1 -114 26 -160 72 -135 181 -193 352 -187 257 8 459 228 599 652
25 74 83 296 93 355 2 16 7 37 9 45 2 8 7 31 10 50 3 19 10 60 15 90 5 30 13
75 16 100 3 25 7 54 9 65 2 11 6 38 9 60 3 22 11 72 17 110 5 39 11 86 13 105
3 53 15 80 35 80 66 0 107 112 65 178 -17 26 -88 61 -139 68 -11 1 -45 7 -75
13 -30 5 -84 13 -120 17 -68 7 -388 13 -393 7z m208 -1183 c-13 -49 -21 -90
-18 -90 3 0 0 -7 -7 -15 -7 -8 -10 -15 -7 -15 10 0 -69 -214 -99 -268 -91
-166 -213 -238 -301 -179 -42 28 -57 67 -55 136 1 57 31 171 45 171 4 0 7 5 7
11 0 25 96 132 159 179 19 14 39 30 45 35 31 27 216 124 237 125 15 0 15 -9
-6 -90z"/>
</g>
</svg>
